<svg xmlns="http://www.w3.org/2000/svg" viewBox="0 0 24 24">
  <path fill="#FF9900" d="M6.763 10.036c0 .296.032.535.088.71.064.176.144.368.256.576.04.064.056.128.056.184 0 .08-.048.16-.152.24l-.504.336a.38.38 0 0 1-.208.072c-.08 0-.16-.04-.232-.112a2.39 2.39 0 0 1-.28-.368 6.18 6.18 0 0 1-.24-.456c-.608.72-1.376 1.08-2.295 1.08-.656 0-1.184-.184-1.567-.56-.384-.376-.576-.872-.576-1.48 0-.656.232-1.184.704-1.584.472-.4 1.096-.6 1.887-.6.264 0 .536.024.824.064.288.04.584.104.896.176v-.568c0-.592-.12-1.008-.368-1.248-.256-.248-.688-.368-1.296-.368-.28 0-.568.032-.864.104a6.3 6.3 0 0 0-.864.272 2.294 2.294 0 0 1-.28.104.488.488 0 0 1-.128.024c-.112 0-.168-.08-.168-.248v-.392c0-.128.016-.224.056-.28a.59.59 0 0 1 .224-.168 5.716 5.716 0 0 1 .952-.344 4.576 4.576 0 0 1 1.192-.144c.912 0 1.576.208 2 .624.416.416.632 1.048.632 1.896v2.496zm-3.168 1.184c.256 0 .52-.048.8-.144.28-.096.528-.272.736-.512.128-.152.224-.32.272-.512.048-.192.08-.424.08-.696v-.336a6.49 6.49 0 0 0-.712-.128 5.81 5.81 0 0 0-.728-.048c-.52 0-.904.104-1.16.32-.256.216-.384.52-.384.912 0 .368.096.648.288.832.184.192.456.312.808.312zm6.28.872c-.144 0-.24-.024-.304-.08-.064-.048-.12-.16-.168-.312L7.684 5.556a1.398 1.398 0 0 1-.072-.32c0-.128.064-.2.192-.2h.784c.152 0 .256.024.312.08.064.048.112.16.16.312l1.544 4.448 2.136-4.448c.04-.16.096-.264.16-.312a.549.549 0 0 1 .32-.08h.64c.152 0 .256.024.32.08.064.048.128.16.16.312l2.16 4.496 1.544-4.496c.048-.16.104-.264.16-.312a.549.549 0 0 1 .32-.08h.744c.128 0 .2.064.2.2 0 .04-.008.08-.016.128-.016.048-.04.112-.072.2l-2.312 6.144c-.048.16-.104.264-.168.312-.064.048-.168.08-.304.08h-.688c-.152 0-.256-.024-.32-.08-.064-.056-.128-.16-.168-.32l-2.128-4.424-2.12 4.416c-.04.16-.096.264-.168.32-.064.056-.176.08-.32.08h-.688zm12.32.248c-.416 0-.832-.048-1.232-.144-.4-.096-.712-.2-.92-.32-.128-.072-.216-.152-.248-.224a.56.56 0 0 1-.048-.216v-.408c0-.168.064-.248.184-.248.048 0 .096.008.144.024.048.016.12.048.2.08.272.12.568.216.888.28.32.064.632.096.952.096.504 0 .896-.088 1.168-.264a.86.86 0 0 0 .408-.752.776.776 0 0 0-.216-.552c-.144-.152-.416-.288-.808-.416l-1.16-.36c-.584-.184-1.016-.456-1.28-.816a1.937 1.937 0 0 1-.4-1.184c0-.344.072-.648.216-.912.144-.264.336-.496.584-.688.248-.2.528-.344.864-.448.336-.104.688-.152 1.056-.152.184 0 .376.008.56.04.192.024.368.064.536.104.16.04.312.088.456.144.144.056.256.112.336.168a.69.69 0 0 1 .24.208.48.48 0 0 1 .072.264v.376c0 .168-.064.256-.184.256a.836.836 0 0 1-.312-.096 3.75 3.75 0 0 0-1.568-.32c-.456 0-.816.072-1.072.224-.256.152-.384.384-.384.704 0 .216.08.4.232.552.152.152.44.304.856.44l1.136.36c.576.184.992.44 1.24.768.248.328.368.704.368 1.12 0 .352-.072.672-.208.952-.144.28-.336.528-.592.736-.256.216-.56.376-.92.488-.376.12-.784.176-1.232.176zM21.72 14.8c-2.576 1.904-6.32 2.92-9.536 2.92-4.512 0-8.576-1.664-11.64-4.432-.24-.216-.024-.512.264-.344 3.312 1.928 7.408 3.088 11.64 3.088 2.856 0 5.992-.592 8.888-1.824.432-.192.8.288.384.592zm1.08-1.232c-.328-.424-2.176-.2-3.008-.104-.248.032-.288-.192-.064-.352 1.472-1.032 3.888-.736 4.168-.392.28.352-.08 2.776-.456 3.936-.064.192-.248.272-.376.136-.512-1.264-.976-2.8-.264-3.224z"/>
</svg>
