<svg xmlns="http://www.w3.org/2000/svg" viewBox="0 0 24 24">
  <path fill="#512BD4" d="M24 8.77h-2.468v7.565h-1.425V8.77h-2.462V7.53H24zm-6.852 7.565h-4.821V7.53h4.63v1.24h-3.205v2.494h2.953v1.234h-2.953v2.604h3.396zm-6.708 0H8.882L5.3 9.863a2.896 2.896 0 0 1-.233-.466h-.032c.028.171.042.946.042 2.323v4.614H3.78V7.53h1.679l3.473 6.358c.152.274.248.455.29.543h.021c-.036-.218-.054-1.072-.054-2.563V7.53h1.35v8.805zM0 14.953a.926.926 0 0 1-.27-.678.924.924 0 0 1 .27-.677.904.904 0 0 1 .67-.282c.267 0 .49.094.67.282a.924.924 0 0 1 .27.677.926.926 0 0 1-.27.678.904.904 0 0 1-.67.282.904.904 0 0 1-.67-.282z"/>
</svg>
