<svg xmlns="http://www.w3.org/2000/svg" viewBox="0 0 48 48">
  <path fill="#4CAF50" d="M45 16.2l-5 2.75-5 4.75V40h7c1.657 0 3-1.343 3-3V16.2z"/>
  <path fill="#1E88E5" d="M3 16.2l3.614 1.71L13 23.7V40H6c-1.657 0-3-1.343-3-3V16.2z"/>
  <polygon fill="#E53935" points="35,11.2 24,19.45 13,11.2 12,17 13,23.7 24,31.95 35,23.7 36,17"/>
  <path fill="#C62828" d="M3 12.298V16.2l10 7.5V11.2H6C4.342 11.2 3 12.342 3 12.298z"/>
  <path fill="#FBC02D" d="M45 12.298V16.2l-10 7.5V11.2h7C43.658 11.2 45 12.342 45 12.298z"/>
</svg>
